<svg width="1128" height="35" viewBox="0 0 1128 35" fill="none" xmlns="http://www.w3.org/2000/svg">
<g clip-path="url(#clip0_3172_906)">
<path fill-rule="evenodd" clip-rule="evenodd" d="M1128 2.28882e-05V11.5435C1126.86 11.3581 1125.6 11.1825 1124.17 11.0166C1119.34 10.4311 1114.51 9.81642 1110.23 7.99172C1108.47 7.21112 1106.78 6.31332 1104.98 5.57172C1088.64 1.22952 1095.61 6.19622 1088.89 5.82542C1081.51 5.66932 1076.72 15.476 1072.93 13.9147C1066.89 11.3093 1065.09 10.5385 1061.76 11.9436C1057.9 13.6024 1058.49 10.6458 1053.08 12.7535C1041.27 17.4568 1045.17 13.0755 1036.17 17.6032C1025.61 22.8236 1030.92 24.1799 1022.37 20.2768L1022.1 20.5208C1021.1 19.5059 1020.11 18.2569 1018.87 17.2324C1017.6 16.9494 1015.32 16.9006 1015.32 16.9006C1013.83 15.6418 1011.79 15.6028 1007.71 15.515C1005.93 15.476 1004.36 17.6715 1002.34 16.8811C1000.58 16.1005 998.78 16.803 997 17.0274C993.929 17.447 993.029 23.8872 985.969 21.0086C985.479 20.7452 984.699 20.4915 984.198 20.4817C980.338 22.1406 972.398 13.0658 970.457 20.1987C964.867 19.5938 963.107 18.5594 961.027 20.7452C960.497 21.2233 953.346 22.3162 950.326 20.7745C949.576 20.2768 946.766 20.6964 946.025 19.945C942.015 16.6469 939.935 19.3303 934.064 19.6913C932.894 14.7148 923.984 15.0173 921.874 18.2081C913.803 15.0759 912.793 14.3148 911.223 15.7589C909.673 16.9494 902.842 14.588 901.352 13.5634C893.551 8.70402 892.941 13.8757 887.651 11.5435C886.151 10.7727 884.621 10.0018 882.82 10.9581C882.32 11.202 881.54 10.6751 881.05 10.6653C874.93 11.5338 873.95 20.4232 852.368 18.7156C837.887 17.6715 847.228 20.5988 838.057 20.6379C835.637 15.1539 822.876 15.8565 816.615 11.2801C815.125 10.0213 813.605 8.99672 811.575 8.44052C809.045 7.90392 806.774 6.60612 804.254 5.81572C796.404 3.42502 797.084 8.13802 792.533 6.56702C790.013 5.52292 786.643 7.66972 784.913 5.41562C784.783 5.26922 784.663 5.11312 784.533 4.98632C784.183 5.27902 782.182 5.23022 764.811 5.24972C758.711 5.12292 760.761 3.94222 750.81 5.21072C733.448 7.57212 730.968 4.05932 726.668 2.96642C726.448 2.91762 726.258 2.86882 726.068 2.82982C725.298 3.25912 724.338 3.63972 723.088 3.89342C716.697 5.24002 715.907 6.46952 711.837 6.13772C703.946 5.48392 706.686 8.25512 702.396 6.93782C697.326 5.34732 691.995 4.98632 686.905 5.38632C684.865 5.34732 683.565 7.05492 682.514 8.76262C672.854 7.56232 655.522 8.68452 654.232 9.16262C649.612 10.8019 645.071 9.22122 640.221 9.35782C635.641 9.51392 633.221 3.77632 621.7 6.49872C617.599 7.40622 619.839 10.1579 615.519 10.3238C612.969 10.5287 614.949 13.2707 608.109 11.3972C607.618 11.1337 595.628 11.1337 595.628 11.1337C590.027 11.0166 584.837 15.1149 583.457 20.5305C578.846 21.6624 568.575 13.7878 545.364 27.8977C542.343 26.1022 536.363 20.5403 530.152 24.3653C524.742 27.4683 522.252 24.1995 519.851 29.8395C517.691 35.2355 515.611 36.9237 510.111 32.3668C506.87 29.5663 502.69 33.9476 498.24 28.1612C494.269 23.1261 490.909 25.79 478.958 25.2826C476.918 25.2436 473.838 26.1706 472.588 25.6339C465.517 23.2627 449.386 15.2418 449.066 30.0932C442.725 28.9613 439.425 27.8977 438.645 28.8832C426.674 33.0596 409.813 21.7015 385.851 21.6819C385.851 21.9356 385.321 22.1601 384.811 22.404C373.03 26.112 377.47 20.2378 369.809 21.077C366.999 21.5063 365.849 27.1756 361.089 23.6238C358.589 21.8381 316.815 20.794 313.225 21.9454C309.925 23.1066 277.602 16.481 275.842 16.8225C275.752 16.8616 275.692 16.9299 275.602 16.9689C271.342 14.4221 212.397 11.0556 203.636 16.481L123.35 9.04552C117.119 23.897 83.6167 8.21612 49.654 8.17712C49.654 8.53812 48.9039 8.86012 48.1738 9.20172C31.4725 14.4611 37.773 6.14742 26.9321 7.31842C22.9418 7.93312 21.3317 15.9638 14.5812 10.9093C11.2509 8.53812 4.9604 10.1091 0 11.6801V0.00982285H1127.98L1128 2.28882e-05Z" fill="#012939"/>
</g>
<defs>
<clipPath id="clip0_3172_906">
<rect width="1128" height="35" fill="white" transform="matrix(1 0 0 -1 0 35)"/>
</clipPath>
</defs>
</svg>
